<?xml version="1.0" encoding="utf-8"?>
<!-- Generator: Adobe Illustrator 16.0.3, SVG Export Plug-In . SVG Version: 6.00 Build 0)  -->
<!DOCTYPE svg PUBLIC "-//W3C//DTD SVG 1.1//EN" "http://www.w3.org/Graphics/SVG/1.1/DTD/svg11.dtd">
<svg version="1.1" id="Layer_1" xmlns="http://www.w3.org/2000/svg" xmlns:xlink="http://www.w3.org/1999/xlink" x="0px" y="0px"
	 width="435px" height="50.348px" viewBox="0 0 435 50.348" style="enable-background:new 0 0 435 50.348;" xml:space="preserve">
<style type="text/css">
<![CDATA[
	.st0{fill-rule:evenodd;clip-rule:evenodd;fill:#E5EFF7;}
	.st1{fill-rule:evenodd;clip-rule:evenodd;fill:#4D94CA;}
	.st2{fill-rule:evenodd;clip-rule:evenodd;fill:#1C63B7;}
	.st3{fill-rule:evenodd;clip-rule:evenodd;fill:#231F20;}
	.st4{fill-rule:evenodd;clip-rule:evenodd;fill:#99C2E1;}
	.st5{fill-rule:evenodd;clip-rule:evenodd;fill:#FFFFFF;}
]]>
</style>
<g>
	<polyline class="st2" points="97.062,40.599 435,40.599 435,9.834 97.062,9.834 97.062,40.599 	"/>
	<polyline class="st0" points="30.851,9.834 0,9.834 0,40.599 30.851,40.599 30.851,9.834 	"/>
	<polyline class="st1" points="64.65,40.599 95.501,40.599 95.501,9.834 64.65,9.834 64.65,40.599 	"/>
	<polyline class="st4" points="32.325,40.599 63.176,40.599 63.176,9.834 32.325,9.834 32.325,40.599 	"/>
	<polyline class="st5" points="116.901,30.337 116.901,19.897 113.139,19.897 113.139,18.472 122.268,18.472 122.268,19.897 
		118.505,19.897 118.505,30.337 116.901,30.337 	"/>
	<path class="st5" d="M129.344,30.337v-5.309c0-0.841-0.121-1.425-0.399-1.746c-0.242-0.328-0.712-0.485-1.332-0.485
		c-0.791,0-1.418,0.221-1.903,0.663c-0.463,0.442-0.684,1.026-0.684,1.788v5.089h-1.454V18.472h1.454v4.468
		c0.264-0.463,0.627-0.827,1.111-1.09c0.463-0.243,0.991-0.364,1.611-0.364c0.647,0,1.211,0.1,1.66,0.307
		c0.441,0.199,0.783,0.499,1.026,0.883c0.142,0.2,0.221,0.442,0.284,0.741c0.058,0.264,0.101,0.727,0.101,1.333v0.42v5.167H129.344"
		/>
	<path class="st5" d="M138.836,27.65h1.439c-0.163,0.976-0.57,1.731-1.254,2.28c-0.67,0.549-1.525,0.834-2.559,0.834
		c-1.219,0-2.166-0.406-2.857-1.218c-0.713-0.813-1.055-1.939-1.055-3.321c0-1.504,0.342-2.666,1.055-3.499
		c0.691-0.834,1.625-1.261,2.857-1.261c1.262,0,2.23,0.385,2.9,1.161c0.691,0.77,1.033,1.875,1.033,3.278c0,0.178,0,0.299,0,0.385
		c0,0.1-0.021,0.185-0.021,0.263h-6.285c0,0.913,0.242,1.626,0.691,2.117c0.428,0.506,1.033,0.776,1.824,0.776
		c0.592,0,1.098-0.164,1.482-0.47S138.715,28.22,138.836,27.65z M134.068,25.334h4.789c0-0.82-0.207-1.447-0.605-1.896
		c-0.406-0.449-0.998-0.648-1.725-0.648c-0.756,0-1.318,0.199-1.725,0.648C134.396,23.866,134.154,24.5,134.068,25.334z"/>
	<polyline class="st5" points="146.746,30.337 146.746,18.472 155.22,18.472 155.22,19.939 148.335,19.939 148.335,23.503 
		154.699,23.503 154.699,24.885 148.335,24.885 148.335,28.868 155.362,28.868 155.362,30.337 146.746,30.337 	"/>
	<path class="st5" d="M167.684,30.337v-5.323c0-0.884-0.121-1.476-0.342-1.796c-0.242-0.321-0.642-0.485-1.24-0.485
		c-0.705,0-1.247,0.221-1.61,0.67c-0.399,0.42-0.605,1.026-0.605,1.81v5.124h-1.462v-5.323c0-0.884-0.099-1.476-0.342-1.796
		c-0.242-0.321-0.662-0.485-1.247-0.485c-0.684,0-1.226,0.221-1.625,0.67c-0.385,0.442-0.584,1.048-0.584,1.81v5.124h-1.446v-8.652
		h1.382v1.212c0.328-0.485,0.706-0.848,1.147-1.069c0.442-0.242,0.948-0.363,1.547-0.363c0.541,0,0.983,0.121,1.39,0.32
		c0.378,0.221,0.698,0.57,0.983,1.034c0.363-0.463,0.763-0.813,1.226-1.034c0.441-0.199,0.94-0.32,1.525-0.32
		c0.563,0,1.047,0.099,1.468,0.299c0.399,0.207,0.72,0.506,0.94,0.891c0.121,0.199,0.221,0.463,0.264,0.784
		c0.058,0.307,0.078,0.791,0.078,1.454v0.243v5.202H167.684"/>
	<path class="st5" d="M171.375,30.394V18.472h1.439v4.468c0.35-0.506,0.756-0.87,1.219-1.133c0.491-0.243,1.02-0.364,1.604-0.364
		c1.162,0,2.095,0.428,2.786,1.276c0.713,0.827,1.055,1.96,1.055,3.371c0,1.397-0.342,2.509-1.033,3.336
		c-0.713,0.833-1.625,1.254-2.786,1.254c-0.605,0-1.134-0.121-1.604-0.342c-0.463-0.221-0.869-0.563-1.24-1.012v1.069H171.375z
		 M172.779,26.011c0,1.069,0.221,1.903,0.67,2.487c0.441,0.584,1.075,0.891,1.888,0.891s1.439-0.307,1.91-0.87
		c0.463-0.57,0.691-1.339,0.691-2.331c0-1.09-0.229-1.938-0.677-2.544c-0.442-0.584-1.076-0.891-1.903-0.891
		c-0.854,0-1.504,0.285-1.931,0.813C172.979,24.108,172.779,24.942,172.779,26.011z"/>
	<path class="st5" d="M187.081,27.65h1.447c-0.164,0.976-0.585,1.731-1.247,2.28c-0.663,0.549-1.511,0.834-2.53,0.834
		c-1.211,0-2.152-0.406-2.857-1.218c-0.684-0.813-1.026-1.939-1.026-3.321c0-1.504,0.343-2.666,1.026-3.499
		c0.685-0.834,1.646-1.261,2.857-1.261c1.227,0,2.188,0.385,2.872,1.161c0.685,0.77,1.005,1.875,1.005,3.278
		c0,0.178,0,0.299,0,0.385c0,0.1,0,0.185-0.021,0.263h-6.229c0.015,0.913,0.235,1.626,0.685,2.117
		c0.441,0.506,1.04,0.776,1.81,0.776c0.599,0,1.083-0.164,1.469-0.47C186.718,28.669,186.982,28.22,187.081,27.65z M182.378,25.334
		h4.746c-0.021-0.82-0.221-1.447-0.627-1.896c-0.385-0.449-0.962-0.648-1.71-0.648c-0.706,0-1.269,0.199-1.689,0.648
		C182.678,23.866,182.436,24.5,182.378,25.334z"/>
	<path class="st5" d="M197.863,18.472v11.922h-1.411v-1.069c-0.363,0.449-0.783,0.77-1.268,1.012
		c-0.464,0.221-0.983,0.342-1.554,0.342c-1.147,0-2.053-0.42-2.758-1.254c-0.663-0.827-1.026-1.939-1.026-3.336
		c0-1.411,0.363-2.544,1.048-3.392c0.684-0.827,1.589-1.255,2.736-1.255c0.605,0,1.154,0.1,1.617,0.342
		c0.464,0.207,0.884,0.549,1.204,0.991v-4.304H197.863z M196.495,26.011c0-1.068-0.199-1.881-0.648-2.422
		c-0.42-0.549-1.083-0.834-1.909-0.834c-0.827,0-1.469,0.307-1.917,0.891c-0.442,0.606-0.663,1.454-0.663,2.544
		c0,0.991,0.242,1.761,0.684,2.331c0.464,0.563,1.091,0.87,1.896,0.87c0.805,0,1.446-0.307,1.896-0.891
		C196.296,27.914,196.495,27.08,196.495,26.011z"/>
	<path class="st5" d="M207.698,18.472v11.922h-1.376v-1.069c-0.385,0.449-0.783,0.77-1.261,1.012
		c-0.456,0.221-0.977,0.342-1.539,0.342c-1.141,0-2.06-0.42-2.737-1.254c-0.677-0.827-1.019-1.939-1.019-3.336
		c0-1.411,0.342-2.544,1.019-3.392c0.678-0.827,1.597-1.255,2.737-1.255c0.599,0,1.14,0.1,1.596,0.342
		c0.463,0.207,0.862,0.549,1.204,0.991v-4.304H207.698z M206.358,26.011c0-1.068-0.221-1.881-0.634-2.422
		c-0.442-0.549-1.084-0.834-1.925-0.834c-0.819,0-1.432,0.307-1.874,0.891c-0.463,0.606-0.685,1.454-0.685,2.544
		c0,0.991,0.242,1.761,0.706,2.331c0.456,0.563,1.076,0.87,1.874,0.87c0.799,0,1.439-0.307,1.881-0.891
		C206.138,27.914,206.358,27.08,206.358,26.011z"/>
	<path class="st5" d="M215.864,27.65h1.462c-0.164,0.976-0.57,1.731-1.255,2.28c-0.67,0.549-1.524,0.834-2.558,0.834
		c-1.219,0-2.167-0.406-2.858-1.218c-0.712-0.813-1.055-1.939-1.055-3.321c0-1.504,0.343-2.666,1.034-3.499
		c0.69-0.834,1.66-1.261,2.879-1.261c1.261,0,2.209,0.385,2.9,1.161c0.69,0.77,1.033,1.875,1.033,3.278c0,0.178,0,0.299,0,0.385
		c0,0.1-0.021,0.185-0.021,0.263h-6.285c0.021,0.913,0.242,1.626,0.67,2.117c0.448,0.506,1.055,0.776,1.823,0.776
		c0.627,0,1.098-0.164,1.504-0.47C215.522,28.669,215.765,28.22,215.864,27.65z M211.119,25.334h4.811
		c-0.021-0.82-0.229-1.447-0.627-1.896c-0.407-0.449-0.977-0.648-1.746-0.648c-0.714,0-1.276,0.199-1.704,0.648
		C211.446,23.866,211.204,24.5,211.119,25.334z"/>
	<path class="st5" d="M226.598,18.472v11.922h-1.412v-1.069c-0.363,0.449-0.79,0.77-1.254,1.012
		c-0.463,0.221-0.99,0.342-1.553,0.342c-1.155,0-2.061-0.42-2.766-1.254c-0.691-0.827-1.033-1.939-1.033-3.336
		c0-1.411,0.342-2.544,1.033-3.392c0.705-0.827,1.61-1.255,2.766-1.255c0.605,0,1.133,0.1,1.617,0.342
		c0.463,0.207,0.862,0.549,1.189,0.991v-4.304H226.598z M225.243,26.011c0-1.068-0.221-1.881-0.641-2.422
		c-0.429-0.549-1.091-0.834-1.939-0.834c-0.813,0-1.461,0.307-1.902,0.891c-0.442,0.606-0.663,1.454-0.663,2.544
		c0,0.991,0.242,1.761,0.685,2.331c0.463,0.563,1.091,0.87,1.896,0.87c0.813,0,1.454-0.307,1.902-0.891
		C225.022,27.914,225.243,27.08,225.243,26.011z"/>
	<polyline class="st5" points="233.546,30.337 233.546,18.472 242.019,18.472 242.019,19.939 235.142,19.939 235.142,23.503 
		241.499,23.503 241.499,24.885 235.142,24.885 235.142,28.868 242.161,28.868 242.161,30.337 233.546,30.337 	"/>
	<polyline class="st5" points="242.952,30.422 245.924,25.94 243.095,21.721 244.77,21.721 246.886,24.842 248.946,21.721 
		250.62,21.721 247.728,25.919 250.799,30.422 249.06,30.422 246.808,27.059 244.627,30.422 242.952,30.422 	"/>
	<path class="st5" d="M252.017,33.929V21.75h1.439v1.211c0.371-0.506,0.777-0.891,1.22-1.133c0.47-0.242,0.997-0.363,1.624-0.363
		c1.161,0,2.074,0.406,2.786,1.254c0.671,0.833,1.034,1.945,1.034,3.364c0,1.404-0.363,2.537-1.056,3.385
		c-0.712,0.833-1.624,1.262-2.785,1.262c-0.606,0-1.155-0.122-1.625-0.35c-0.442-0.221-0.849-0.542-1.198-0.991v4.54H252.017z
		 M253.399,26.168c0,1.076,0.221,1.881,0.648,2.43s1.098,0.834,1.953,0.834c0.826,0,1.46-0.306,1.902-0.913
		c0.449-0.591,0.677-1.44,0.677-2.559c0-0.969-0.249-1.76-0.69-2.33c-0.471-0.563-1.098-0.849-1.911-0.849
		c-0.812,0-1.46,0.285-1.909,0.87C253.62,24.244,253.399,25.092,253.399,26.168z"/>
	<path class="st5" d="M267.603,27.65h1.461c-0.143,0.976-0.57,1.731-1.254,2.28c-0.691,0.549-1.526,0.834-2.559,0.834
		c-1.219,0-2.167-0.406-2.858-1.218c-0.691-0.813-1.055-1.939-1.055-3.321c0-1.504,0.342-2.666,1.034-3.499
		c0.712-0.834,1.66-1.261,2.879-1.261c1.239,0,2.209,0.385,2.899,1.161c0.713,0.77,1.034,1.875,1.034,3.278c0,0.178,0,0.299,0,0.385
		c0,0.1-0.021,0.185-0.021,0.263h-6.285c0.021,0.913,0.242,1.626,0.69,2.117c0.428,0.506,1.034,0.776,1.804,0.776
		c0.612,0,1.098-0.164,1.482-0.47C267.26,28.669,267.503,28.22,267.603,27.65z M262.878,25.334h4.767
		c0-0.82-0.206-1.447-0.627-1.896c-0.385-0.449-0.977-0.648-1.725-0.648c-0.712,0-1.275,0.199-1.702,0.648
		C263.184,23.866,262.941,24.5,262.878,25.334z"/>
	<path class="st5" d="M270.916,30.422V21.75h1.404v1.561c0.221-0.584,0.541-1.033,0.919-1.318c0.406-0.278,0.905-0.442,1.468-0.442
		c0.101,0,0.179,0,0.235,0.021c0.064,0,0.107,0,0.143,0.021v1.532c-0.035,0-0.078-0.021-0.121-0.021c-0.057,0-0.121,0-0.221,0
		c-0.763,0-1.361,0.228-1.761,0.627c-0.42,0.428-0.62,1.055-0.62,1.86v4.832H270.916"/>
	<path class="st5" d="M278.121,28.277c0,0.393,0.063,0.656,0.185,0.792c0.101,0.128,0.3,0.185,0.606,0.185c0.086,0,0.186,0,0.307,0
		c0.121-0.021,0.285-0.021,0.484-0.043v1.24c-0.242,0.064-0.463,0.086-0.648,0.101c-0.199,0.042-0.385,0.042-0.527,0.042
		c-0.691,0-1.176-0.142-1.461-0.406c-0.264-0.264-0.406-0.727-0.406-1.417v-5.83h-1.297v-1.176h1.297v-2.438h1.461v2.438h1.582
		v1.176h-1.582V28.277"/>
	<path class="st5" d="M280.408,27.65h1.426c0.043,0.592,0.264,1.04,0.627,1.347c0.392,0.307,0.919,0.463,1.589,0.463
		c0.635,0,1.141-0.142,1.504-0.384c0.349-0.242,0.534-0.591,0.534-1.019c0-0.307-0.085-0.571-0.263-0.735
		c-0.187-0.178-0.557-0.32-1.084-0.441l-1.625-0.427c-0.919-0.208-1.567-0.514-1.932-0.877c-0.349-0.371-0.534-0.898-0.534-1.568
		c0-0.777,0.285-1.383,0.877-1.832c0.592-0.47,1.382-0.712,2.401-0.712c1.041,0,1.853,0.263,2.479,0.755
		c0.613,0.463,0.92,1.14,0.92,1.932v0.042h-1.426c-0.042-0.47-0.221-0.819-0.569-1.083c-0.35-0.242-0.813-0.363-1.404-0.363
		c-0.591,0-1.04,0.1-1.361,0.307c-0.285,0.2-0.448,0.506-0.448,0.912c0,0.264,0.1,0.492,0.284,0.656
		c0.187,0.164,0.55,0.307,1.077,0.428l1.425,0.321c0.997,0.249,1.71,0.549,2.095,0.919c0.385,0.384,0.57,0.912,0.57,1.604
		c0,0.898-0.328,1.61-0.955,2.116c-0.648,0.492-1.546,0.755-2.687,0.755c-1.119,0-1.995-0.285-2.587-0.791
		C280.758,29.425,280.451,28.648,280.408,27.65"/>
	<path class="st5" d="M307.09,2.138c-1.033,0-1.882,0.934-1.882,2.081v41.996c0,1.154,0.849,2.081,1.882,2.081h91.93
		c1.034,0,1.86-0.927,1.86-2.081V4.219c0-1.147-0.826-2.081-1.86-2.081H307.09"/>
	<path class="st3" d="M307.033,2.102c-1.034,0-1.883,0.934-1.883,2.081v41.981c0,1.154,0.849,2.081,1.883,2.081h91.958
		c1.034,0,1.859-0.927,1.859-2.081V4.183c0-1.147-0.825-2.081-1.859-2.081H307.033z M398.991,50.348h-91.958
		c-2.188,0-3.963-1.882-3.963-4.184V4.183c0-2.302,1.774-4.183,3.963-4.183h91.958c2.167,0,3.94,1.881,3.94,4.183v41.981
		C402.932,48.466,401.158,50.348,398.991,50.348z"/>
	<polyline class="st2" points="308.287,16.847 314.509,25.22 308.287,33.587 308.287,16.847 	"/>
	<path class="st2" d="M317.565,9.271l10.404,13.626v0.057c0.257,0.349,0.685,0.627,1.147,0.627h66.524
		c0.813,0,1.476-0.684,1.476-1.489c0-0.834-0.663-1.518-1.476-1.518h-65.819l-9.955-13.063V7.49
		c-0.257-0.342-0.684-0.563-1.147-0.563c-0.791,0-1.454,0.648-1.454,1.454C317.266,8.723,317.388,9.029,317.565,9.271"/>
	<path class="st2" d="M323.402,26.097c0.221-0.265,0.342-0.571,0.342-0.913c0-0.363-0.121-0.67-0.342-0.934L310.924,7.532
		c-0.264-0.264-0.691-0.605-1.154-0.605c-0.834,0-1.482,0.67-1.482,1.475c0,0.363,0.143,0.713,0.363,0.955l11.815,15.849
		L308.65,41.055c-0.221,0.242-0.363,0.584-0.363,0.947c0,0.813,0.648,1.418,1.482,1.418c0.463,0,0.891-0.384,1.154-0.626
		L323.402,26.097"/>
	<path class="st2" d="M395.642,26.681h-66.524c-0.463,0-0.891,0.342-1.147,0.684v0.043l-10.404,13.632v0.022
		c-0.178,0.242-0.3,0.562-0.3,0.891c0,0.826,0.663,1.467,1.454,1.467c0.464,0,0.891-0.22,1.147-0.563l0.021-0.063l9.955-13.106
		h65.798c0.813,0,1.476-0.691,1.476-1.496C397.117,27.386,396.454,26.681,395.642,26.681"/>
	<path class="st3" d="M338.51,35.853c0,0.277-0.107,0.484-0.285,0.648c-0.186,0.156-0.449,0.256-0.755,0.256
		c-0.406,0-0.813-0.221-1.197-0.662c-0.122-0.101-0.186-0.186-0.25-0.242c-0.178-0.207-0.441-0.343-0.748-0.464
		c-0.327-0.085-0.69-0.142-1.119-0.142c-0.612,0-1.098,0.1-1.446,0.321c-0.328,0.199-0.506,0.484-0.506,0.869
		c0,0.528,0.648,0.912,1.988,1.176c0.307,0.079,0.57,0.121,0.733,0.156c0.813,0.165,1.426,0.307,1.811,0.407
		c0.392,0.121,0.713,0.242,0.977,0.362c0.492,0.242,0.834,0.528,1.083,0.892c0.221,0.385,0.342,0.826,0.342,1.354
		c0,0.969-0.406,1.739-1.219,2.303c-0.791,0.563-1.909,0.848-3.299,0.848c-0.748,0-1.404-0.058-1.953-0.179
		c-0.548-0.164-1.076-0.385-1.582-0.691c-0.327-0.199-0.612-0.441-0.833-0.747c-0.207-0.3-0.286-0.585-0.286-0.87
		c0-0.277,0.079-0.521,0.286-0.706c0.198-0.178,0.463-0.284,0.77-0.284c0.405,0,0.812,0.242,1.161,0.69
		c0.143,0.179,0.242,0.3,0.328,0.407c0.242,0.242,0.527,0.42,0.848,0.541c0.35,0.101,0.756,0.164,1.227,0.164
		c0.727,0,1.282-0.1,1.667-0.328c0.363-0.199,0.57-0.52,0.57-0.948c0-0.563-0.977-1.047-2.908-1.432
		c-0.085,0-0.143-0.021-0.185-0.021c-1.504-0.306-2.502-0.67-3.015-1.09c-0.549-0.429-0.791-1.055-0.791-1.882
		c0-0.927,0.363-1.639,1.14-2.159c0.77-0.527,1.853-0.791,3.235-0.791c0.627,0,1.197,0.079,1.711,0.2
		c0.526,0.121,0.99,0.307,1.418,0.57c0.307,0.178,0.591,0.42,0.798,0.706C338.402,35.347,338.51,35.611,338.51,35.853"/>
	<path class="st3" d="M348.465,41.874c0.407,0,0.749,0.087,0.955,0.229c0.222,0.157,0.321,0.363,0.321,0.663
		c0,0.307-0.1,0.527-0.342,0.691c-0.207,0.142-0.527,0.222-0.935,0.222h-6.071c-0.549,0-0.912-0.101-1.133-0.322
		c-0.206-0.228-0.307-0.626-0.307-1.218v-6.713c0-0.613,0.101-1.012,0.307-1.24c0.221-0.2,0.584-0.321,1.133-0.321h5.772
		c0.399,0,0.728,0.079,0.948,0.221c0.199,0.143,0.306,0.363,0.306,0.649c0,0.285-0.106,0.484-0.306,0.627
		c-0.221,0.164-0.549,0.22-0.948,0.22h-4.881v2.088h4.368c0.427,0,0.755,0.079,0.955,0.2c0.199,0.142,0.306,0.363,0.306,0.648
		c0,0.263-0.106,0.463-0.306,0.605c-0.221,0.143-0.528,0.229-0.955,0.229h-4.368v2.521H348.465"/>
	<path class="st3" d="M359.233,40.057h-1.753c-0.278,0-0.541-0.086-0.728-0.242c-0.178-0.164-0.277-0.363-0.277-0.627
		c0-0.242,0.1-0.471,0.277-0.592c0.187-0.156,0.429-0.221,0.728-0.221h2.522c0.506,0,0.862,0.064,1.069,0.207
		c0.199,0.135,0.299,0.384,0.299,0.727v3.72c0,0.3-0.057,0.521-0.199,0.663c-0.143,0.164-0.342,0.221-0.627,0.221
		c-0.221,0-0.399-0.057-0.542-0.157c-0.164-0.121-0.264-0.285-0.32-0.506l-0.164-0.748c-0.441,0.506-0.927,0.869-1.476,1.09
		c-0.521,0.242-1.147,0.343-1.874,0.343c-1.61,0-2.922-0.464-3.891-1.411c-1.005-0.934-1.49-2.202-1.49-3.742
		c0-1.573,0.485-2.85,1.476-3.755c0.983-0.934,2.316-1.418,3.97-1.418c0.52,0,1.025,0.043,1.489,0.143s0.904,0.221,1.312,0.385
		c0.563,0.264,1.005,0.542,1.311,0.87c0.3,0.32,0.464,0.641,0.464,0.99c0,0.265-0.101,0.507-0.3,0.685
		c-0.185,0.186-0.428,0.286-0.727,0.286c-0.242,0-0.463-0.044-0.649-0.144c-0.178-0.078-0.398-0.264-0.662-0.549
		c-0.32-0.342-0.648-0.584-0.97-0.705c-0.319-0.165-0.705-0.221-1.168-0.221c-0.97,0-1.718,0.299-2.28,0.913
		c-0.542,0.605-0.827,1.453-0.827,2.501c0,1.055,0.285,1.881,0.87,2.487c0.563,0.605,1.347,0.912,2.337,0.912
		c0.77,0,1.368-0.186,1.875-0.57C358.813,41.226,359.098,40.699,359.233,40.057"/>
	<path class="st3" d="M371.633,40.057h-1.753c-0.299,0-0.52-0.086-0.727-0.242c-0.178-0.164-0.277-0.363-0.277-0.627
		c0-0.242,0.1-0.471,0.263-0.592c0.2-0.156,0.442-0.221,0.741-0.221h2.544c0.499,0,0.841,0.064,1.048,0.207
		c0.199,0.135,0.299,0.384,0.299,0.727v3.72c0,0.3-0.057,0.521-0.178,0.663c-0.142,0.164-0.342,0.221-0.648,0.221
		c-0.221,0-0.399-0.057-0.563-0.157c-0.121-0.121-0.222-0.285-0.285-0.506l-0.179-0.748c-0.441,0.506-0.904,0.869-1.453,1.09
		c-0.542,0.242-1.19,0.343-1.896,0.343c-1.61,0-2.899-0.464-3.904-1.411c-0.991-0.934-1.476-2.202-1.476-3.742
		c0-1.573,0.484-2.85,1.476-3.755c0.983-0.934,2.315-1.418,3.969-1.418c0.521,0,1.026,0.043,1.511,0.143
		c0.464,0.1,0.905,0.221,1.29,0.385c0.563,0.264,1.005,0.542,1.312,0.87c0.32,0.32,0.484,0.641,0.484,0.99
		c0,0.265-0.121,0.507-0.307,0.685c-0.199,0.186-0.441,0.286-0.741,0.286c-0.242,0-0.448-0.044-0.648-0.144
		c-0.178-0.078-0.398-0.264-0.662-0.549c-0.307-0.342-0.627-0.584-0.97-0.705c-0.32-0.165-0.727-0.221-1.19-0.221
		c-0.926,0-1.695,0.299-2.259,0.913c-0.541,0.605-0.805,1.453-0.805,2.501c0,1.055,0.284,1.881,0.848,2.487
		c0.563,0.605,1.347,0.912,2.337,0.912c0.749,0,1.369-0.186,1.875-0.57C371.213,41.226,371.512,40.699,371.633,40.057"/>
	<path class="st3" d="M383.506,41.874c0.428,0,0.77,0.087,0.977,0.229c0.199,0.157,0.32,0.363,0.32,0.663
		c0,0.307-0.121,0.527-0.343,0.691c-0.206,0.142-0.526,0.222-0.954,0.222h-6.071c-0.528,0-0.913-0.101-1.112-0.322
		c-0.207-0.228-0.307-0.626-0.307-1.218v-6.713c0-0.613,0.1-1.012,0.307-1.24c0.199-0.2,0.584-0.321,1.112-0.321h5.771
		c0.421,0,0.748,0.079,0.97,0.221c0.199,0.143,0.328,0.363,0.328,0.649c0,0.285-0.129,0.484-0.328,0.627
		c-0.222,0.164-0.549,0.22-0.97,0.22h-4.86v2.088h4.369c0.428,0,0.755,0.079,0.934,0.2c0.221,0.142,0.327,0.363,0.327,0.648
		c0,0.263-0.106,0.463-0.327,0.605c-0.2,0.143-0.506,0.229-0.934,0.229h-4.369v2.521H383.506"/>
	<path class="st3" d="M388.786,42.75c0,0.35-0.1,0.635-0.299,0.813c-0.186,0.163-0.484,0.263-0.869,0.263
		c-0.399,0-0.706-0.1-0.884-0.263c-0.207-0.179-0.286-0.464-0.286-0.813v-7.325c0-0.606,0.101-1.012,0.286-1.233
		c0.221-0.207,0.584-0.328,1.126-0.328h4.133c1.254,0,2.159,0.221,2.765,0.691c0.606,0.463,0.905,1.176,0.905,2.109
		c0,0.606-0.143,1.119-0.441,1.504c-0.307,0.407-0.728,0.67-1.269,0.834c0.441,0.101,0.763,0.32,0.983,0.585
		c0.221,0.263,0.363,0.612,0.406,1.054c0.021,0.187,0.042,0.429,0.042,0.713c0.015,0.307,0.036,0.485,0.058,0.606
		c0.021,0.106,0.063,0.284,0.121,0.491c0.043,0.242,0.078,0.385,0.078,0.484c0,0.285-0.1,0.484-0.32,0.648
		c-0.2,0.186-0.484,0.264-0.848,0.264c-0.506,0-0.849-0.143-1.048-0.363c-0.199-0.243-0.342-0.876-0.442-1.846
		c-0.063-0.812-0.199-1.304-0.441-1.482c-0.228-0.186-0.648-0.264-1.275-0.264h-2.48V42.75z M388.786,35.568v2.601h2.765
		c0.606,0,1.048-0.1,1.333-0.306c0.278-0.2,0.421-0.549,0.421-0.998c0-0.421-0.121-0.727-0.421-0.969
		c-0.264-0.229-0.69-0.328-1.232-0.328H388.786z"/>
</g>
<g>
</g>
<g>
</g>
<g>
</g>
<g>
</g>
<g>
</g>
<g>
</g>
<g>
</g>
<g>
</g>
<g>
</g>
<g>
</g>
<g>
</g>
<g>
</g>
<g>
</g>
<g>
</g>
<g>
</g>
</svg>
